<?xml version="1.0" encoding="UTF-8"?><svg id="uuid-eaae887b-2504-44de-9295-9b902125de92" xmlns="http://www.w3.org/2000/svg" viewBox="0 0 546.588035 694.718799"><path id="uuid-4bb63af3-db98-4c9e-8dbc-f0d0f3a015d7" d="m545.926152,210.787502c-.669983-9.280029-.959961-18.610046-2.409973-27.850037-1.390015-8.769958-2.690002-17.539978-4.480042-26.26001-2.949951-14.339966-6.949951-28.309998-13.019958-41.599976-6.780029-14.880005-15.190002-28.659973-29.140015-38.109985-12.890015-8.730042-26.460022-9.230042-40.5-3.070007-11.029968,4.830017-20.799988,11.789978-30.869995,18.23999-10.090027,6.470032-20.220032,12.909973-31.98999,15.940002-9.859985,2.530029-20.320007,2.150024-28.820007-3.960022-9.710022-6.98999-14.51001-19.139954-20.349976-29.25-6.77002-11.72998-11.170044-24.289978-18.420044-35.699951-8.869995-13.980042-19.399963-26.360046-34.899963-33.340027-16.360046-7.380005-32.790039-8.080017-49.350037-.200012-27.959961,13.330017-42.619995,44.51001-53.349976,71.910034-5.830017,14.919983-11.780029,32.669983-30.200012,34.719971-9.26001,1.030029-18.090027-.929993-26.75-4.070007-12.23999-4.429993-23.630005-10.640015-35.099976-16.690002-7.730042-4.079956-15.730042-7.599976-24.200012-9.940002-14.549988-4.019958-31.309998,1.98999-40.890015,13.660034-12.330017,15.01001-18.25,32.700012-23.22998,50.969971-3.609985,13.230042-5.470032,26.710022-6.73999,40.309998-1.680054,17.950012-1.410034,35.970032-.450012,53.860046,1.130005,21.169983,4.76001,42.159973,9.97998,62.789978,4.880005,20.52002,11.119995,40.619995,18.780029,60.279968,6.619995,17,13.630005,33.850037,21.409973,50.340027,3.98999,8.429993,8.169983,16.77002,12.609985,24.97998,2.119995,3.929993,4.530029,7.73999,6.619995,11.679993,1.700012,3.200012,3.01001,6.330017,6.350037,8.210022,3.080017,1.72998,7.299988,1.669983,9.859985-.76001,1.640015-1.539978,2.409973-3.779968,2.98999-5.950012,4.980042-18.380005-1.149963-36.549988-4.459961-54.659973-2.870056-15.650024-5.700012-31.320007-5.610046-47.330017.02002-4,.350037-8.029968-.079956-11.98999-.330017-3.150024.630005-5.809998,1.869995-8.419983,1.929993-4.100037,6.519958-5.960022,10.279968-4.190002,2.220032,1.039978,4.340027,2.299988,6.160034,4.119995,10.609985,10.650024,16.699951,24.419983,24.059998,37.27002,4.059998,7.069946,15.809998,19.22998,21.839966,6.659973,3.01001-6.279968,3.690002-13.01001,4.75-19.76001,1.200012-7.619995,2.840027-15.219971,4.98999-22.630005,2.160034-7.429993,4.430054-14.839966,9.369995-21.219971,5.050049-6.530029,12.140015-7.700012,18.150024-2.080017,3.190002,2.98999,5.929993,6.410034,7.840027,10.369995,3.690002,7.630005,7.909973,14.97998,10.679993,23.100037,3.47998,10.190002,6.969971,20.369995,10.279968,30.609985,1.400024,4.339966,2.660034,8.690002,3.950012,13.039978,1.530029,5.150024,3.099976,10.290039,4.970032,15.369995,10.929993,29.660034,21.759949,59.350037,35.139954,88.02002,5.01001,10.72998,9.890015,21.51001,15.130005,32.130005,9.559998,19.390015,19.940002,38.359985,30.890015,57.01001,12.97998,22.109985,26.950012,43.579956,41.679993,64.539978,8.109985,11.559998,16.700012,22.789978,25.25,34.039978,4.369995,5.75,8.919983,11.350037,14.410034,16.180054,5.47998,4.809998,16.819946,2.899963,19.059998-5.110046,1.339966-4.820007,1.539978-9.619995.569946-14.429993-2.529968-12.529968-8.089966-24.080017-11.939941-36.179993-4.140015-13.029968-8.480042-25.98999-12.300049-39.119995-2.949951-10.150024-5.51001-20.400024-7.98999-30.640015-1.969971-8.149963-3.919983-16.390015-5.309998-24.719971-2.210022-13.23999-4.830017-26.410034-6.940002-39.660034-1.469971-9.209961-2.349976-18.51001-3.529968-27.76001-1.670044-13.059998-3.040039-26.169983-3.160034-39.319946-.179993-19.059998-.72998-38.160034,1.429993-57.160034,1.150024-10.099976,2.119995-20.26001,4.040039-30.219971,2.369995-12.369995,5.059998-24.700012,8.889954-36.740051,2.340027-7.399963,5.580017-14.25,10.670044-20.159973,5.309998-6.159973,12.639954-6.969971,18.459961-1.909973,1.790039,1.549988,3.320007,3.349976,4.640015,5.349976,5.660034,8.599976,8.52002,18.359985,11.410034,28.049988,2.359985,7.940002,3.929993,16.119995,6.819946,23.900024,1.52002,4.089966,4.150024,7.789978,8.680054,8.399963,4.429993.600037,7.389954-2.319946,9.940002-5.929993,5.109985-7.25,5.919983-16.019958,8.949951-23.97998,3.540039-9.299988,6.230042-18.869995,12.700012-26.75,3.619995-4.400024,8.23999-7.179993,13.859985-6.679993,5.720032.48999,8.700012,4.929993,10.429993,10,4.370056,12.809998,2.350037,27.119995,1.52002,40.349976-.909973,14.48999-1.909973,28.970032-3,43.450012-1.330017,17.820007-4.429993,36.289978.220032,53.859985,1,3.799988,2.849976,6.710022,6.759949,7.720032,3.180054.809998,7.490051-1.52002,9.560059-5.190002,1.449951-2.559998,2.639954-5.290039,3.919983-7.919983,9.169983-18.77002,16.109985-38.380005,22.429993-58.220032,6.619995-20.779968,12.409973-41.76001,16.279968-63.299988,3.820007-21.22998,6.350037-42.02002,7.900024-63.530029.909973-12.589966.970032-25.22998.049988-37.769958Zm-283.429993-109.670044c-.320007.210022-.710022.280029-1.080017.320007-1.779968.230042-3.609985.049988-5.389954-.019958-1.880005-.080017-3.740051-.230042-5.619995-.340027-3.470032-.190002-6.900024-.48999-10.309998-1.080017-1.140015-.190002-2.27002-.419983-3.390015-.679993-1.75-.409973-3.480042-.959961-5.090027-1.75-2.789978-1.369995-5.359985-3.429993-7.899963-5.209961-2.25-1.580017-4.480042-3.190002-6.680054-4.840027-1.849976-1.390015-3.969971-2.720032-5.099976-4.809998-.26001-.47998-.380005-1.059998-.190002-1.559998.190002-.549988.700012-.919983,1.210022-1.200012,2.799988-1.529968,6.029968-1.099976,9.089966-1.159973,4.980042-.110046,10.050049-.070007,15,.519958,1.630005.210022,2.850037.340027,4.25,1.290039,1.290039.859985,2.570007,1.73999,3.869995,2.589966,2.01001,1.320007,3.830017,2.98999,5.710022,4.5.150024.299988.809998.650024,1.080017.869995.390015.309998.779968.630005,1.179993.940002.789978.630005,1.570007,1.27002,2.359985,1.900024,1.51001,1.210022,2.98999,2.47998,4.390015,3.830017,1.159973,1.119995,3.409973,2.690002,3.359985,4.509949-.02002.540039-.289978,1.090027-.75,1.380005Zm56.01001-18.409973c-1.140015,2.089966-3.25,3.419983-5.099976,4.809998-2.200012,1.650024-4.430054,3.26001-6.680054,4.840027-2.539978,1.779968-5.109985,3.839966-7.899963,5.209961-1.619995.790039-3.340027,1.340027-5.090027,1.75-1.130005.26001-2.26001.48999-3.389954.679993-3.410034.590027-6.840027.890015-10.310059,1.080017-1.879944.109985-3.75.26001-5.619995.340027-1.779968.069946-3.619995.25-5.389954.019958-.369995-.039978-.76001-.109985-1.080017-.320007-.460022-.289978-.72998-.839966-.75-1.380005-.049988-1.819946,2.200012-3.389954,3.359985-4.509949,1.400024-1.350037,2.869995-2.619995,4.390015-3.830017.789978-.630005,1.570007-1.27002,2.359985-1.900024.390015-.309998.790039-.630005,1.179993-.940002.27002-.219971.929993-.570007,1.080017-.869995,1.880005-1.51001,3.700012-3.179993,5.710022-4.5,1.299988-.849976,2.579956-1.72998,3.859985-2.589966,1.399963-.950012,2.630005-1.080017,4.26001-1.290039,4.950012-.589966,10.019958-.630005,15-.519958,3.049988.059998,6.289978-.369995,9.089966,1.159973.51001.280029,1.02002.650024,1.210022,1.200012.190002.5.070007,1.080017-.190002,1.559998Z"/></svg>